<?xml version="1.0" standalone="no"?>
<!DOCTYPE svg PUBLIC "-//W3C//DTD SVG 20010904//EN"
 "http://www.w3.org/TR/2001/REC-SVG-20010904/DTD/svg10.dtd">
<svg version="1.0" xmlns="http://www.w3.org/2000/svg"
 width="644.000000pt" height="644.000000pt" viewBox="0 0 644.000000 644.000000"
 preserveAspectRatio="xMidYMid meet">
<metadata>
Created by potrace 1.14, written by Peter Selinger 2001-2017
</metadata>
<g transform="translate(0.000000,644.000000) scale(0.100000,-0.100000)"
fill="#000000" stroke="none">
<path d="M1350 3797 l-75 -102 -2 -115 -2 -115 52 -60 c101 -118 116 -132 116
-110 1 30 1 46 -2 255 -1 107 1 203 6 213 4 9 4 17 -1 17 -4 0 -7 27 -6 60 1
33 -1 60 -5 60 -3 0 -40 -47 -81 -103z"/>
<path d="M994 3693 c-11 -10 -44 -47 -74 -82 -30 -35 -64 -73 -75 -85 -11 -12
-39 -44 -62 -72 -23 -27 -51 -60 -63 -74 -12 -14 -40 -47 -63 -74 -23 -28 -54
-63 -69 -78 -16 -16 -28 -31 -28 -33 0 -3 -8 -13 -17 -23 -10 -10 -43 -47 -73
-81 -30 -35 -69 -80 -87 -100 -17 -20 -82 -94 -143 -166 -62 -71 -135 -156
-163 -188 -90 -103 -96 -94 69 -94 119 0 149 3 163 16 10 9 74 86 141 171 68
85 129 160 136 166 8 6 14 16 14 22 0 6 3 12 8 14 4 2 52 59 107 128 55 69
104 130 110 136 5 6 22 26 37 45 126 161 151 190 157 183 5 -5 43 -54 87 -109
43 -55 92 -116 109 -136 16 -20 37 -45 45 -55 12 -16 68 -86 147 -184 6 -8 38
-47 70 -86 93 -114 102 -127 97 -135 -2 -5 -139 -8 -304 -8 -200 1 -298 4
-294 11 6 9 93 115 144 175 10 12 46 56 79 98 l61 76 -61 75 c-34 41 -65 74
-69 74 -4 0 -24 -20 -44 -45 -20 -24 -42 -50 -49 -57 -7 -7 -48 -56 -92 -108
-44 -52 -92 -108 -107 -125 -45 -51 -68 -78 -106 -124 -21 -24 -67 -79 -103
-121 -36 -42 -69 -81 -72 -87 -4 -6 192 -10 583 -10 325 0 590 4 590 8 0 4 -5
11 -11 15 -16 10 -48 86 -53 126 -6 48 11 117 40 161 l25 38 -28 32 c-16 18
-42 47 -58 66 -17 19 -37 42 -45 51 -8 9 -55 63 -105 120 -81 95 -132 153
-175 200 -8 9 -40 45 -70 81 -30 35 -60 69 -65 75 -6 6 -31 35 -56 64 -24 29
-60 70 -80 92 -36 40 -37 40 -55 21z"/>
<path d="M3429 3583 c-106 -27 -168 -85 -200 -186 -31 -99 -9 -214 55 -285 81
-89 211 -119 336 -77 42 15 100 55 100 71 0 7 -39 46 -72 72 -14 11 -21 10
-46 -8 -67 -50 -165 -32 -211 38 -20 29 -25 50 -25 98 -1 74 28 124 86 150 48
22 121 14 152 -15 l22 -21 47 47 c44 44 46 48 31 65 -24 25 -121 60 -176 62
-26 1 -71 -4 -99 -11z"/>
<path d="M1937 3581 c-16 -6 -35 -31 -42 -59 -3 -12 -16 -46 -30 -75 -13 -28
-57 -133 -99 -232 -55 -135 -71 -181 -61 -185 8 -3 41 -3 74 -2 57 4 60 5 72
35 6 18 13 38 15 45 5 25 15 27 119 28 l103 1 18 -54 18 -53 78 0 c76 0 77 0
69 23 -13 34 -61 149 -76 182 -7 17 -30 70 -50 118 -19 48 -41 100 -47 115 -6
15 -12 29 -13 32 -1 3 -8 21 -17 41 -15 35 -19 37 -67 40 -28 2 -57 2 -64 0z
m88 -268 c25 -70 29 -65 -53 -65 -24 0 -46 2 -48 5 -4 4 11 50 48 147 l10 25
10 -25 c5 -14 20 -53 33 -87z"/>
<path d="M2998 3582 c-42 -2 -60 -8 -67 -20 -5 -9 -30 -82 -56 -162 -26 -80
-50 -148 -54 -153 -4 -4 -21 32 -39 80 -17 49 -44 124 -60 168 l-29 80 -97 3
-96 3 0 -276 0 -275 66 0 65 0 -3 179 c-2 99 0 182 3 185 3 3 6 0 6 -7 1 -20
125 -351 134 -357 4 -3 26 -4 47 -2 35 3 42 8 55 40 21 52 99 262 102 276 1 6
7 22 13 36 l11 25 2 -25 c1 -14 0 -29 -1 -35 -1 -5 -2 -77 -2 -160 l-1 -150
67 -3 66 -3 0 274 0 275 -37 3 c-21 2 -64 3 -95 1z"/>
<path d="M5220 3582 c-6 -2 -10 -73 -10 -180 l0 -176 -30 47 c-16 26 -30 52
-30 57 0 6 -4 10 -10 10 -5 0 -10 5 -10 11 0 6 -12 30 -28 53 -15 22 -45 71
-67 108 l-40 68 -77 0 -78 0 0 -277 0 -278 65 3 66 4 -3 175 -3 175 20 -26
c11 -15 29 -42 40 -61 157 -265 156 -263 199 -267 23 -1 58 -2 79 0 l37 3 0
274 0 273 -55 4 c-30 1 -60 2 -65 0z"/>
<path d="M5906 3580 c-25 -5 -26 -6 -11 -25 9 -11 55 -81 104 -155 l88 -135 0
-113 c1 -62 4 -116 7 -120 7 -6 118 -3 125 3 2 3 4 55 5 117 l2 113 102 153
c56 84 102 156 102 160 0 4 -35 6 -78 4 l-78 -3 -52 -95 c-29 -52 -56 -94 -60
-94 -5 0 -32 42 -62 94 l-53 94 -57 4 c-32 2 -70 1 -84 -2z"/>
<path d="M3779 3558 c0 -13 -1 -135 -1 -273 l-1 -250 69 0 68 0 1 110 0 110
105 0 105 0 -1 -112 -1 -111 52 -4 c92 -6 84 -31 84 278 l-1 274 -67 0 -67 0
-1 -87 c0 -49 -1 -95 -2 -103 -1 -13 -19 -16 -104 -16 l-103 0 0 100 1 101
-67 3 c-65 3 -68 2 -69 -20z"/>
<path d="M4370 3306 l0 -275 48 -3 c26 -2 112 -1 192 2 l144 5 -1 38 c-2 80
10 73 -125 72 l-123 0 -3 56 -3 55 113 0 113 0 1 55 0 55 -113 0 -113 -1 0 50
0 51 118 -1 117 0 3 58 3 57 -186 0 -185 0 0 -274z"/>
<path d="M5450 3306 l0 -276 65 0 65 0 0 105 c0 87 3 107 16 112 22 8 35 -9
90 -112 26 -49 50 -94 54 -98 7 -9 149 -12 157 -3 3 2 -4 17 -15 33 -23 32
-122 193 -122 198 0 1 11 6 25 9 13 3 37 23 52 43 24 31 28 46 28 99 0 73 -19
106 -81 138 -33 18 -61 22 -186 24 l-148 4 0 -276z m254 153 c30 -14 36 -26
29 -63 -7 -32 -37 -47 -105 -50 l-48 -3 0 64 0 63 50 0 c27 0 60 -5 74 -11z"/>
<path d="M1816 2878 c-39 -20 -77 -65 -85 -101 -6 -32 -6 -98 2 -127 16 -62
107 -124 175 -119 42 3 102 29 122 54 12 15 12 19 -5 31 -17 13 -21 13 -31 -1
-16 -22 -75 -43 -108 -38 -65 9 -110 66 -110 138 -1 85 57 146 134 140 38 -3
80 -23 80 -38 0 -4 9 -3 20 3 32 17 23 40 -25 61 -54 24 -119 23 -169 -3z"/>
<path d="M2158 2880 c-69 -37 -100 -101 -92 -188 10 -103 103 -174 208 -158
54 9 91 33 124 80 23 33 27 49 26 106 0 73 -19 111 -75 151 -44 31 -142 36
-191 9z m173 -56 c74 -71 59 -188 -31 -234 -30 -15 -44 -17 -83 -8 -79 16
-120 91 -98 175 11 41 57 97 71 88 5 -3 11 -1 14 4 3 5 27 7 52 5 34 -2 55
-11 75 -30z"/>
<path d="M2895 2888 c-33 -19 -45 -35 -51 -67 -13 -62 25 -106 108 -126 46
-12 75 -59 54 -88 -30 -40 -81 -41 -127 0 -14 12 -19 12 -33 -3 -16 -15 -16
-18 0 -35 22 -24 89 -42 128 -35 81 16 114 111 59 168 -15 15 -33 28 -40 28
-7 0 -33 9 -58 21 -38 18 -45 26 -45 50 0 53 65 76 111 40 19 -15 28 -16 40
-7 52 38 -85 89 -146 54z"/>
<path d="M4104 2887 c-49 -23 -85 -63 -98 -109 -43 -152 74 -278 223 -238 20
5 48 21 60 34 39 41 1 65 -41 26 -34 -31 -94 -30 -145 1 -31 19 -63 86 -57
119 1 8 4 24 6 36 15 86 126 129 198 76 28 -21 50 -14 50 14 0 39 -136 68
-196 41z"/>
<path d="M4828 2880 c-89 -48 -119 -166 -67 -260 31 -55 77 -82 142 -83 67 -1
86 3 126 32 95 68 92 235 -6 300 -52 33 -144 39 -195 11z m154 -41 c62 -33 85
-110 54 -182 -18 -44 -48 -68 -96 -77 -87 -16 -160 55 -154 149 6 100 108 157
196 110z"/>
<path d="M2488 2883 c-2 -5 -3 -82 -3 -173 l1 -165 24 0 25 0 0 127 c0 69 3
129 6 132 3 3 12 -6 20 -22 7 -15 26 -43 41 -63 15 -20 28 -41 28 -47 0 -6 3
-12 8 -14 4 -1 25 -29 46 -60 31 -46 45 -58 65 -58 l26 0 0 175 0 175 -22 0
c-22 0 -23 -4 -24 -82 -1 -46 -1 -102 -1 -125 1 -24 -3 -43 -7 -43 -5 0 -46
56 -92 125 -72 107 -88 124 -111 125 -15 0 -28 -3 -30 -7z"/>
<path d="M3074 2879 c-12 -20 15 -33 65 -30 l49 2 -1 -156 -2 -155 25 0 25 0
0 153 0 152 58 3 c49 3 57 6 57 22 0 19 -8 20 -134 20 -86 0 -137 -4 -142 -11z"/>
<path d="M3389 2881 c0 -6 0 -31 0 -56 0 -280 0 -285 21 -285 22 0 22 -1 24
89 1 58 3 64 23 67 19 3 31 -11 73 -80 45 -73 54 -82 75 -78 28 5 27 7 -33
101 -32 52 -33 55 -16 67 35 24 52 45 57 71 7 35 -10 79 -36 96 -27 17 -187
24 -188 8z m161 -51 c24 -24 25 -38 5 -65 -12 -14 -28 -19 -67 -20 l-52 0 -2
45 c-1 25 0 48 3 53 2 4 24 7 49 7 31 0 50 -6 64 -20z"/>
<path d="M3671 2759 c1 -113 4 -136 22 -167 25 -43 76 -65 128 -58 98 14 113
43 115 219 l2 137 -24 0 c-24 0 -24 0 -24 -120 0 -137 -12 -176 -58 -186 -15
-3 -32 -7 -38 -9 -19 -6 -63 39 -69 70 -3 17 -5 78 -6 138 l0 107 -25 0 -25 0
2 -131z"/>
<path d="M4317 2876 c-8 -22 2 -26 60 -26 l53 0 0 -155 0 -155 25 0 26 0 -2
133 c-1 197 -8 177 56 177 48 0 55 2 55 20 0 19 -7 20 -134 20 -106 0 -135 -3
-139 -14z"/>
<path d="M4629 2883 c0 -5 0 -82 -1 -173 l0 -165 23 0 24 0 0 173 1 172 -23 0
c-13 0 -23 -3 -24 -7z"/>
<path d="M5159 2858 c0 -45 0 -267 0 -296 1 -18 6 -23 24 -20 21 3 22 6 23
133 1 72 2 132 3 134 1 4 67 -90 106 -151 67 -105 79 -118 105 -118 l28 0 0
175 0 175 -24 0 c-27 0 -27 -3 -25 -172 1 -49 0 -88 -3 -88 -2 0 -43 59 -92
130 -78 115 -91 130 -116 130 -25 0 -28 -4 -29 -32z"/>
<path d="M5645 2718 l0 -173 75 -5 c102 -7 130 -2 130 21 0 21 0 21 -80 24
-30 1 -60 3 -67 4 -8 1 -12 38 -11 129 0 181 1 172 -25 172 l-23 0 1 -172z"/>
<path d="M5803 2870 c-2 -18 4 -20 56 -20 l57 0 0 -152 -1 -153 25 -3 25 -3 0
153 0 153 43 1 c54 2 72 9 72 29 0 13 -21 15 -138 15 -131 0 -138 -1 -139 -20z"/>
<path d="M6115 2715 l0 -175 78 0 c155 0 238 74 223 201 -12 101 -82 149 -217
149 l-84 0 0 -175z m187 112 c48 -26 72 -74 64 -130 -10 -72 -69 -113 -161
-112 l-40 0 -1 133 0 133 50 -2 c29 -1 67 -11 88 -22z"/>
</g>
</svg>
